<svg viewBox="0 0 100 100" xmlns="http://www.w3.org/2000/svg">
  <!-- Ivy - Steady presence nature cow -->
  <ellipse cx="50" cy="55" rx="35" ry="30" fill="#F0F8F0"/>
  <ellipse cx="50" cy="70" rx="20" ry="15" fill="#E0F0E0"/>
  <!-- Ears with ivy -->
  <ellipse cx="18" cy="36" rx="10" ry="6" fill="#F0F8F0" transform="rotate(-30 18 36)"/>
  <ellipse cx="82" cy="36" rx="10" ry="6" fill="#F0F8F0" transform="rotate(30 82 36)"/>
  <ellipse cx="18" cy="36" rx="6" ry="4" fill="#6B8E6B" transform="rotate(-30 18 36)"/>
  <ellipse cx="82" cy="36" rx="6" ry="4" fill="#6B8E6B" transform="rotate(30 82 36)"/>
  <!-- Green spots -->
  <ellipse cx="32" cy="43" rx="11" ry="9" fill="#6B8E6B"/>
  <ellipse cx="68" cy="47" rx="9" ry="7" fill="#6B8E6B"/>
  <!-- Calm eyes -->
  <circle cx="38" cy="50" r="5" fill="#2F4F2F"/>
  <circle cx="62" cy="50" r="5" fill="#2F4F2F"/>
  <circle cx="39" cy="49" r="2" fill="white"/>
  <circle cx="63" cy="49" r="2" fill="white"/>
  <!-- Nostrils -->
  <ellipse cx="44" cy="72" rx="3" ry="3" fill="#A8C8A8"/>
  <ellipse cx="56" cy="72" rx="3" ry="3" fill="#A8C8A8"/>
  <!-- Gentle smile -->
  <path d="M 43 77 Q 50 82 57 77" stroke="#4A6B4A" stroke-width="2" fill="none" stroke-linecap="round"/>
  <!-- Ivy vines -->
  <path d="M 15 25 Q 20 30 18 35 Q 22 38 20 42" stroke="#228B22" stroke-width="2" fill="none"/>
  <circle cx="15" cy="25" r="3" fill="#228B22"/>
  <circle cx="20" cy="32" r="2.5" fill="#228B22"/>
  <circle cx="18" cy="40" r="2" fill="#228B22"/>
</svg>
